<svg width="27" height="21" viewBox="0 0 27 21" fill="none" xmlns="http://www.w3.org/2000/svg">
<path d="M26.2509 0C26.1591 0 26.0644 0.0173437 25.9716 0.054375L18.0005 3H18L9.9375 0.15375C9.63152 0.0520443 9.31119 0.000133528 8.98875 0C8.67516 0 8.36203 0.0492187 8.06016 0.147187L0.943125 2.62265C0.664771 2.73399 0.426155 2.92616 0.258051 3.17439C0.0899478 3.42262 6.6666e-05 3.71552 0 4.01531L0 20.2491C0 20.6798 0.352969 21 0.749531 21C0.841406 21 0.935625 20.9826 1.02891 20.9456L9 18L17.0625 20.8458C17.6714 21.049 18.3294 21.0514 18.9398 20.8528L26.0569 18.3773C26.3353 18.2661 26.5739 18.0739 26.742 17.8257C26.9101 17.5774 27 17.2845 27 16.9847V0.750937C27 0.320156 26.647 0 26.2509 0ZM10.5 2.73844L16.5 4.85672V18.2616L10.5 16.1433V2.73844ZM2.25 18.0961V4.55015L8.25 2.46281V15.8784L8.22 15.8892L2.25 18.0961ZM24.75 16.4494L18.75 18.5367V5.12156L18.78 5.11031L24.75 2.9039V16.4494Z" fill="black"/>
</svg>
