<svg width="22" height="26" viewBox="0 0 22 26" fill="none" xmlns="http://www.w3.org/2000/svg">
<path d="M21.5772 17.791C20.6284 16.7715 18.8532 15.2379 18.8532 10.2143C18.8532 6.39864 16.1778 3.34419 12.5704 2.59481V1.57142C12.5704 0.703703 11.8672 0 11 0C10.1328 0 9.42956 0.703703 9.42956 1.57142V2.59481C5.82216 3.34419 3.14681 6.39864 3.14681 10.2143C3.14681 15.2379 1.37159 16.7715 0.422845 17.791C0.128203 18.1077 -0.0024214 18.4863 3.3952e-05 18.8571C0.00543572 19.6624 0.637443 20.4285 1.57637 20.4285H20.4236C21.3626 20.4285 21.9951 19.6624 22 18.8571C22.0024 18.4863 21.8718 18.1072 21.5772 17.791ZM3.31623 18.0714C4.35828 16.6979 5.49756 14.4213 5.50296 10.2427C5.50296 10.2329 5.50002 10.2241 5.50002 10.2143C5.50002 7.1765 7.96224 4.71427 11 4.71427C14.0378 4.71427 16.5 7.1765 16.5 10.2143C16.5 10.2241 16.497 10.2329 16.497 10.2427C16.5024 14.4217 17.6417 16.6983 18.6838 18.0714H3.31623ZM11 25.1428C12.7345 25.1428 14.1414 23.7359 14.1414 21.9999H7.85863C7.85863 23.7359 9.26554 25.1428 11 25.1428Z" fill="black"/>
</svg>
